<svg width="32" height="32" viewBox="0 0 32 32" fill="none" xmlns="http://www.w3.org/2000/svg">
<path d="M0 16C0 7.16344 7.16344 0 16 0C24.8366 0 32 7.16344 32 16C32 24.8366 24.8366 32 16 32C7.16344 32 0 24.8366 0 16Z" fill="#E5E9EB"/>
<path d="M10.5574 9.77441H18.5599C19.0356 9.77441 19.6302 10.1032 19.882 10.5089L22.806 15.1817C23.0859 15.6364 23.0579 16.35 22.7361 16.7767L19.1126 21.6034C18.8538 21.9462 18.2941 22.226 17.8674 22.226H10.5574C9.33318 22.226 8.59172 20.8829 9.23528 19.8406L11.1729 16.7417C11.4318 16.329 11.4318 15.6574 11.1729 15.2447L9.23528 12.1458C8.59172 11.1175 9.34018 9.77441 10.5574 9.77441Z" stroke="#546E7A" stroke-width="1.5" stroke-miterlimit="10" stroke-linecap="round" stroke-linejoin="round"/>
</svg>
