<svg width="24" height="24" viewBox="0 0 24 24" fill="none" xmlns="http://www.w3.org/2000/svg">
<path d="M5.89488 22.1318C5.68682 22.1318 5.51022 22.0592 5.36508 21.9141C5.21994 21.7688 5.14737 21.5922 5.14737 21.3843V3.36363H3.75022C3.54216 3.36363 3.36556 3.29106 3.22042 3.14592C3.0751 3.0006 3.00244 2.82391 3.00244 2.61585C3.00244 2.4078 3.0751 2.23039 3.22042 2.08364C3.36556 1.93672 3.54216 1.86325 3.75022 1.86325H5.7249C5.98479 1.86325 6.20357 1.95253 6.38125 2.1311C6.55892 2.30984 6.64775 2.52657 6.64775 2.78128V21.3843C6.64775 21.5922 6.57429 21.7688 6.42736 21.9141C6.28043 22.0592 6.10294 22.1318 5.89488 22.1318ZM10.0716 22.1318C9.56504 22.1318 9.13328 21.9534 8.77633 21.5966C8.41956 21.2398 8.24117 20.8081 8.24117 20.3014V3.69368C8.24117 3.19034 8.41956 2.75947 8.77633 2.40109C9.13328 2.04253 9.56504 1.86325 10.0716 1.86325H19.172C19.6754 1.86325 20.1062 2.04253 20.4646 2.40109C20.8232 2.75947 21.0024 3.19034 21.0024 3.69368V20.3014C21.0024 20.8081 20.8232 21.2398 20.4646 21.5966C20.1062 21.9534 19.6754 22.1318 19.172 22.1318H10.0716ZM9.74155 11.1937C10.0427 10.9504 10.3801 10.7645 10.7537 10.636C11.1273 10.5073 11.522 10.443 11.938 10.443H17.3003C17.7162 10.443 18.1111 10.5073 18.4848 10.636C18.8584 10.7645 19.1975 10.9504 19.5021 11.1937V3.69368C19.5021 3.60091 19.4702 3.52271 19.4066 3.45908C19.343 3.39545 19.2648 3.36363 19.172 3.36363H10.0716C9.97526 3.36363 9.89616 3.39545 9.83432 3.45908C9.77247 3.52271 9.74155 3.60091 9.74155 3.69368V11.1937ZM14.6205 8.83428C14.0841 8.83428 13.6283 8.64669 13.2533 8.2715C12.8783 7.89632 12.6908 7.44106 12.6908 6.90572C12.6908 6.37038 12.8784 5.91431 13.2536 5.53752C13.6288 5.16091 14.0841 4.9726 14.6194 4.9726C15.1547 4.9726 15.6108 5.16055 15.9876 5.53645C16.3644 5.91235 16.5528 6.36841 16.5528 6.90465C16.5528 7.44106 16.3648 7.89677 15.9889 8.27177C15.613 8.64678 15.1569 8.83428 14.6205 8.83428ZM10.0716 20.6314H19.172C19.2648 20.6314 19.343 20.6005 19.4066 20.5386C19.4702 20.4768 19.5021 20.3977 19.5021 20.3014V14.1451C19.5021 13.5397 19.2865 13.0215 18.8554 12.5903C18.4241 12.159 17.9057 11.9434 17.3003 11.9434H11.938C11.334 11.9434 10.8169 12.159 10.3866 12.5903C9.95658 13.0215 9.74155 13.5397 9.74155 14.1451V20.3014C9.74155 20.3977 9.77247 20.4768 9.83432 20.5386C9.89616 20.6005 9.97526 20.6314 10.0716 20.6314ZM13.8716 17.0376V18.435C13.8716 18.6429 13.9443 18.8195 14.0896 18.9648C14.2349 19.1099 14.4116 19.1825 14.6197 19.1825C14.8277 19.1825 15.0051 19.1099 15.1519 18.9648C15.2986 18.8195 15.372 18.6429 15.372 18.435V17.0376H16.7641C16.9721 17.0376 17.1496 16.965 17.2965 16.8199C17.4435 16.6745 17.5169 16.4979 17.5169 16.2898C17.5169 16.0817 17.4435 15.9043 17.2965 15.7576C17.1496 15.6107 16.9721 15.5372 16.7641 15.5372H15.372V14.1451C15.372 13.9373 15.2984 13.7598 15.1513 13.6127C15.0044 13.4657 14.8269 13.3923 14.6189 13.3923C14.4108 13.3923 14.2342 13.4657 14.0891 13.6127C13.9441 13.7598 13.8716 13.9373 13.8716 14.1451V15.5372H12.4742C12.2663 15.5372 12.0897 15.6107 11.9444 15.7579C11.7993 15.9048 11.7267 16.0823 11.7267 16.2903C11.7267 16.4984 11.7993 16.675 11.9444 16.8201C12.0897 16.9651 12.2663 17.0376 12.4742 17.0376H13.8716ZM10.0716 20.6314H9.74155H19.5021H10.0716Z" fill="#647491"/>
</svg>
