<svg width="20" height="20" viewBox="0 0 20 20" fill="none" xmlns="http://www.w3.org/2000/svg">
<g id="Attachment">
<path id="Vector" d="M3.92473 15.9137C3.02778 15.0167 2.56944 13.9423 2.54973 12.6905C2.53002 11.4387 2.96864 10.3644 3.86559 9.46742L10.2231 3.10989C10.8539 2.47907 11.6154 2.16612 12.5074 2.17105C13.3994 2.17597 14.1608 2.49385 14.7917 3.12467C15.4323 3.76536 15.7527 4.52924 15.7527 5.41634C15.7527 6.30344 15.4323 7.06733 14.7917 7.70801L8.9664 13.5333C8.59184 13.9078 8.14583 14.0976 7.62836 14.1025C7.11089 14.1074 6.66487 13.9226 6.29032 13.5481C5.91577 13.1735 5.74081 12.7176 5.76546 12.1805C5.7901 11.6433 5.99462 11.1825 6.37903 10.7981L12.1747 5.00236L12.7661 5.59376L6.92607 11.4338C6.70923 11.6507 6.59588 11.9069 6.58602 12.2026C6.57616 12.4983 6.67473 12.7497 6.88172 12.9567C7.08871 13.1637 7.33759 13.2647 7.62836 13.2598C7.91913 13.2548 8.16801 13.1489 8.375 12.9419L14.2151 7.10183C14.6882 6.62871 14.9223 6.06441 14.9173 5.40895C14.9124 4.75348 14.6734 4.18919 14.2003 3.71607C13.7272 3.24295 13.1629 3.00393 12.5074 2.999C11.8519 2.99407 11.2876 3.22817 10.8145 3.70129L4.42742 10.0884C3.70788 10.8079 3.36044 11.6778 3.38508 12.6979C3.40972 13.7181 3.78674 14.5929 4.51613 15.3223C5.25538 16.0615 6.13508 16.4385 7.15524 16.4533C8.1754 16.4681 9.05018 16.1108 9.77957 15.3814L16.1667 8.9943L16.7581 9.5857L10.3858 15.958C9.4888 16.855 8.41196 17.296 7.15524 17.2813C5.89852 17.2665 4.82168 16.8106 3.92473 15.9137Z" fill="#647491"/>
</g>
</svg>
