<svg width="20" height="20" viewBox="0 0 20 20" fill="none" xmlns="http://www.w3.org/2000/svg">
<path d="M10.8003 16.2468C10.3603 16.8335 9.64025 16.8335 9.20025 16.2468L8.20025 14.9135C8.08691 14.7668 7.84692 14.6468 7.66692 14.6468H7.33359C4.66692 14.6468 3.33359 13.9801 3.33359 10.6468V7.31348C3.33359 4.64681 4.66692 3.31348 7.33359 3.31348H12.6669C15.3336 3.31348 16.6669 4.64681 16.6669 7.31348V10.6468" stroke="#F94839" stroke-miterlimit="10" stroke-linecap="round" stroke-linejoin="round"/>
<path d="M14.1333 16.2667C15.3115 16.2667 16.2667 15.3115 16.2667 14.1333C16.2667 12.9551 15.3115 12 14.1333 12C12.9551 12 12 12.9551 12 14.1333C12 15.3115 12.9551 16.2667 14.1333 16.2667Z" stroke="#F94839" stroke-linecap="round" stroke-linejoin="round"/>
<path d="M16.6667 16.6667L16 16" stroke="#F94839" stroke-linecap="round" stroke-linejoin="round"/>
<path d="M12.6641 9.33333H12.67" stroke="#F94839" stroke-width="1.33333" stroke-linecap="round" stroke-linejoin="round"/>
<path d="M9.997 9.33333H10.003" stroke="#F94839" stroke-width="1.33333" stroke-linecap="round" stroke-linejoin="round"/>
<path d="M7.32967 9.33333H7.33566" stroke="#F94839" stroke-width="1.33333" stroke-linecap="round" stroke-linejoin="round"/>
</svg>
