<svg width="32" height="32" viewBox="0 0 32 32" fill="none" xmlns="http://www.w3.org/2000/svg">
<path d="M0 16C0 7.16344 7.16344 0 16 0C24.8366 0 32 7.16344 32 16C32 24.8366 24.8366 32 16 32C7.16344 32 0 24.8366 0 16Z" fill="#F94839"/>
<path d="M7.41711 19.6988C7.21686 19.4918 7.05711 19.2345 6.95476 18.9328C6.8524 18.6311 6.78996 18.3131 6.77895 17.9675C6.76074 17.3841 6.85475 16.859 7.06695 16.3754C7.27339 15.8975 7.57537 15.4606 7.97845 15.0707C8.5658 14.5024 9.32696 14.0332 10.2617 13.6743C11.1965 13.3154 12.2258 13.0542 13.344 12.8964C14.4734 12.7387 15.6184 12.6662 16.7902 12.6791C17.9618 12.7032 19.1036 12.8119 20.2157 13.005C21.322 13.2036 22.3362 13.4914 23.2411 13.8737C24.1516 14.2618 24.8961 14.7548 25.4746 15.3528C25.8529 15.7438 26.1453 16.1843 26.3409 16.663C26.542 17.1474 26.6347 17.6811 26.6076 18.2639C26.5895 18.9826 26.3589 19.5508 25.9328 19.9631C25.7715 20.119 25.5769 20.2405 25.3662 20.3108C25.1497 20.3866 24.9172 20.4113 24.6689 20.3621L21.514 19.7743C21.2713 19.7309 21.0685 19.6711 20.8943 19.5947C20.7257 19.5241 20.5801 19.4312 20.4744 19.322C20.3409 19.184 20.2477 19.007 20.2004 18.7967C20.1473 18.5921 20.1232 18.3482 20.1279 18.0765L20.1261 17.1989C20.1283 17.0744 20.0848 16.9718 19.9958 16.8798C19.9513 16.8338 19.9066 16.7991 19.8506 16.7643C19.7888 16.735 19.7381 16.7172 19.6932 16.6939C19.406 16.6044 18.9883 16.5298 18.4457 16.476C17.8973 16.4277 17.3261 16.3903 16.7319 16.3753C16.1261 16.3714 15.5541 16.3793 14.9986 16.4159C14.4545 16.4525 14.04 16.5196 13.7441 16.6055C13.7041 16.6219 13.6529 16.638 13.5959 16.6598C13.5332 16.6871 13.4815 16.7259 13.4297 16.7761C13.3318 16.8708 13.2903 16.9777 13.2882 17.1022L13.2677 17.9568C13.2628 18.2398 13.2303 18.4828 13.1646 18.6799C13.1101 18.8885 13.0166 19.0569 12.8726 19.1962C12.7632 19.302 12.6258 19.3904 12.449 19.4612C12.2723 19.5321 12.0675 19.5854 11.829 19.627L8.61582 20.1197C8.36597 20.1611 8.14551 20.1406 7.94311 20.0581C7.74647 19.9701 7.57285 19.8598 7.41711 19.6988Z" fill="white" stroke="#F94839" stroke-width="1.27394" stroke-miterlimit="10"/>
</svg>
