<svg width="32" height="32" viewBox="0 0 32 32" fill="none" xmlns="http://www.w3.org/2000/svg">
<path d="M0 16C0 7.16344 7.16344 0 16 0C24.8366 0 32 7.16344 32 16C32 24.8366 24.8366 32 16 32C7.16344 32 0 24.8366 0 16Z" fill="#08A742"/>
<path d="M23.9844 21.0719C23.9844 21.3603 23.9203 21.6568 23.7841 21.9452C23.6479 22.2336 23.4716 22.5061 23.2393 22.7624C22.8467 23.1951 22.414 23.5076 21.9253 23.7079C21.4446 23.9082 20.9238 24.0123 20.3629 24.0123C19.5457 24.0123 18.6724 23.82 17.751 23.4274C16.8296 23.0349 15.9083 22.5061 14.9949 21.8411C14.0735 21.1681 13.2002 20.4229 12.3669 19.5977C11.5417 18.7644 10.7966 17.8911 10.1316 16.9778C9.47461 16.0644 8.94582 15.151 8.56124 14.2457C8.17666 13.3323 7.98438 12.459 7.98438 11.6257C7.98438 11.0809 8.08052 10.5601 8.27281 10.0794C8.4651 9.59069 8.76955 9.14201 9.19419 8.74141C9.70696 8.23665 10.2678 7.98828 10.8607 7.98828C11.085 7.98828 11.3094 8.03635 11.5097 8.1325C11.718 8.22864 11.9023 8.37286 12.0465 8.58117L13.9053 11.2011C14.0495 11.4014 14.1536 11.5857 14.2257 11.7619C14.2978 11.9302 14.3379 12.0984 14.3379 12.2507C14.3379 12.443 14.2818 12.6353 14.1697 12.8195C14.0655 13.0038 13.9133 13.1961 13.721 13.3884L13.1121 14.0213C13.0239 14.1095 12.9839 14.2136 12.9839 14.3418C12.9839 14.4059 12.9919 14.462 13.0079 14.5261C13.0319 14.5902 13.056 14.6383 13.072 14.6863C13.2162 14.9507 13.4646 15.2952 13.8171 15.7119C14.1777 16.1285 14.5622 16.5531 14.9789 16.9778C15.4115 17.4024 15.8281 17.795 16.2528 18.1555C16.6694 18.5081 17.0139 18.7484 17.2863 18.8926C17.3264 18.9087 17.3745 18.9327 17.4305 18.9567C17.4946 18.9808 17.5587 18.9888 17.6308 18.9888C17.767 18.9888 17.8712 18.9407 17.9593 18.8526L18.5683 18.2517C18.7686 18.0514 18.9608 17.8991 19.1451 17.803C19.3294 17.6908 19.5137 17.6348 19.714 17.6348C19.8662 17.6348 20.0264 17.6668 20.2027 17.7389C20.379 17.811 20.5632 17.9152 20.7635 18.0514L23.4155 19.9342C23.6238 20.0784 23.7681 20.2467 23.8562 20.447C23.9363 20.6473 23.9844 20.8476 23.9844 21.0719Z" fill="white" stroke="#08A742" stroke-width="1.2018" stroke-miterlimit="10"/>
</svg>
