<svg width="20" height="21" viewBox="0 0 20 21" fill="none" xmlns="http://www.w3.org/2000/svg">
<g id="vuesax/outline/camera">
<g id="camera">
<path id="Vector" d="M14.3667 19.4583H5.6334C3.30006 19.4583 1.81673 18.0666 1.6834 15.7416L1.25006 8.86663C1.1834 7.82496 1.54173 6.82496 2.2584 6.06663C2.96673 5.30829 3.96673 4.87496 5.00006 4.87496C5.26673 4.87496 5.52506 4.71663 5.65006 4.46663L6.25006 3.27496C6.74173 2.29996 7.97506 1.54163 9.05006 1.54163H10.9584C12.0334 1.54163 13.2584 2.29996 13.7501 3.26663L14.3501 4.48329C14.4751 4.71663 14.7251 4.87496 15.0001 4.87496C16.0334 4.87496 17.0334 5.30829 17.7417 6.06663C18.4584 6.83329 18.8167 7.82496 18.7501 8.86663L18.3167 15.75C18.1667 18.1083 16.7251 19.4583 14.3667 19.4583ZM9.05006 2.79163C8.4334 2.79163 7.65006 3.27496 7.36673 3.83329L6.76673 5.03329C6.41673 5.70829 5.74173 6.12496 5.00006 6.12496C4.30006 6.12496 3.65006 6.40829 3.16673 6.91663C2.69173 7.42496 2.45006 8.09163 2.50006 8.78329L2.9334 15.6666C3.0334 17.35 3.94173 18.2083 5.6334 18.2083H14.3667C16.0501 18.2083 16.9584 17.35 17.0667 15.6666L17.5001 8.78329C17.5417 8.09163 17.3084 7.42496 16.8334 6.91663C16.3501 6.40829 15.7001 6.12496 15.0001 6.12496C14.2584 6.12496 13.5834 5.70829 13.2334 5.04996L12.6251 3.83329C12.3501 3.28329 11.5667 2.79996 10.9501 2.79996H9.05006V2.79163Z" fill="#354869"/>
<path id="Vector_2" d="M11.25 7.79163H8.75C8.40833 7.79163 8.125 7.50829 8.125 7.16663C8.125 6.82496 8.40833 6.54163 8.75 6.54163H11.25C11.5917 6.54163 11.875 6.82496 11.875 7.16663C11.875 7.50829 11.5917 7.79163 11.25 7.79163Z" fill="#354869"/>
<path id="Vector_3" d="M10.0001 16.125C8.15841 16.125 6.66675 14.6334 6.66675 12.7917C6.66675 10.95 8.15841 9.45837 10.0001 9.45837C11.8417 9.45837 13.3334 10.95 13.3334 12.7917C13.3334 14.6334 11.8417 16.125 10.0001 16.125ZM10.0001 10.7084C8.85008 10.7084 7.91675 11.6417 7.91675 12.7917C7.91675 13.9417 8.85008 14.875 10.0001 14.875C11.1501 14.875 12.0834 13.9417 12.0834 12.7917C12.0834 11.6417 11.1501 10.7084 10.0001 10.7084Z" fill="#354869"/>
</g>
</g>
</svg>
