<svg width="20" height="20" viewBox="0 0 20 20" fill="none" xmlns="http://www.w3.org/2000/svg">
<g id="vuesax/linear/message-search">
<g id="message-search">
<g id="Group">
<path id="Vector" d="M11.0001 17.8092C10.4501 18.5426 9.55007 18.5426 9.00007 17.8092L7.75007 16.1426C7.6084 15.9592 7.30841 15.8092 7.08341 15.8092H6.66675C3.33341 15.8092 1.66675 14.9759 1.66675 10.8092V6.64258C1.66675 3.30924 3.33341 1.64258 6.66675 1.64258H13.3334C16.6667 1.64258 18.3334 3.30924 18.3334 6.64258V10.8092" stroke="#080F1A" stroke-width="1.25" stroke-miterlimit="10" stroke-linecap="round" stroke-linejoin="round"/>
</g>
<g id="Group_2">
<path id="Vector_2" d="M15.1667 17.8333C16.6394 17.8333 17.8333 16.6394 17.8333 15.1667C17.8333 13.6939 16.6394 12.5 15.1667 12.5C13.6939 12.5 12.5 13.6939 12.5 15.1667C12.5 16.6394 13.6939 17.8333 15.1667 17.8333Z" stroke="#080F1A" stroke-width="1.25" stroke-linecap="round" stroke-linejoin="round"/>
<path id="Vector_3" d="M18.3333 18.3333L17.5 17.5" stroke="#080F1A" stroke-width="1.25" stroke-linecap="round" stroke-linejoin="round"/>
</g>
<path id="Vector_4" d="M13.3303 9.16667H13.3378" stroke="#080F1A" stroke-width="1.66667" stroke-linecap="round" stroke-linejoin="round"/>
<path id="Vector_5" d="M9.99632 9.16667H10.0038" stroke="#080F1A" stroke-width="1.66667" stroke-linecap="round" stroke-linejoin="round"/>
<path id="Vector_6" d="M6.66209 9.16667H6.66957" stroke="#080F1A" stroke-width="1.66667" stroke-linecap="round" stroke-linejoin="round"/>
</g>
</g>
</svg>
