<svg width="72" height="119" viewBox="0 0 72 119" fill="none" xmlns="http://www.w3.org/2000/svg">
<g filter="url(#filter0_dddd_2489_36234)">
<g clip-path="url(#clip0_2489_36234)">
<circle cx="36" cy="13" r="8" fill="white"/>
<path d="M38.5001 15.4447L33.5562 10.5" stroke="#647491" stroke-width="0.833326" stroke-miterlimit="10" stroke-linecap="round" stroke-linejoin="round"/>
<path d="M38.4439 10.5552L33.5 15.4998" stroke="#647491" stroke-width="0.833326" stroke-miterlimit="10" stroke-linecap="round" stroke-linejoin="round"/>
</g>
<path d="M36 20.6667C31.7658 20.6667 28.3333 17.2342 28.3333 13C28.3333 8.76582 31.7658 5.33333 36 5.33333C40.2342 5.33333 43.6667 8.76582 43.6667 13C43.6667 17.2342 40.2342 20.6667 36 20.6667Z" stroke="white" stroke-width="0.666667"/>
</g>
<defs>
<filter id="filter0_dddd_2489_36234" x="0" y="0.333333" width="72" height="118" filterUnits="userSpaceOnUse" color-interpolation-filters="sRGB">
<feFlood flood-opacity="0" result="BackgroundImageFix"/>
<feColorMatrix in="SourceAlpha" type="matrix" values="0 0 0 0 0 0 0 0 0 0 0 0 0 0 0 0 0 0 127 0" result="hardAlpha"/>
<feOffset dy="4.66667"/>
<feGaussianBlur stdDeviation="4.66667"/>
<feColorMatrix type="matrix" values="0 0 0 0 0.74902 0 0 0 0 0.74902 0 0 0 0 0.74902 0 0 0 0.1 0"/>
<feBlend mode="normal" in2="BackgroundImageFix" result="effect1_dropShadow_2489_36234"/>
<feColorMatrix in="SourceAlpha" type="matrix" values="0 0 0 0 0 0 0 0 0 0 0 0 0 0 0 0 0 0 127 0" result="hardAlpha"/>
<feOffset dy="17.3333"/>
<feGaussianBlur stdDeviation="8.66667"/>
<feColorMatrix type="matrix" values="0 0 0 0 0.74902 0 0 0 0 0.74902 0 0 0 0 0.74902 0 0 0 0.09 0"/>
<feBlend mode="normal" in2="effect1_dropShadow_2489_36234" result="effect2_dropShadow_2489_36234"/>
<feColorMatrix in="SourceAlpha" type="matrix" values="0 0 0 0 0 0 0 0 0 0 0 0 0 0 0 0 0 0 127 0" result="hardAlpha"/>
<feOffset dy="39.3333"/>
<feGaussianBlur stdDeviation="11.6667"/>
<feColorMatrix type="matrix" values="0 0 0 0 0.74902 0 0 0 0 0.74902 0 0 0 0 0.74902 0 0 0 0.05 0"/>
<feBlend mode="normal" in2="effect2_dropShadow_2489_36234" result="effect3_dropShadow_2489_36234"/>
<feColorMatrix in="SourceAlpha" type="matrix" values="0 0 0 0 0 0 0 0 0 0 0 0 0 0 0 0 0 0 127 0" result="hardAlpha"/>
<feOffset dy="69.3333"/>
<feGaussianBlur stdDeviation="14"/>
<feColorMatrix type="matrix" values="0 0 0 0 0.74902 0 0 0 0 0.74902 0 0 0 0 0.74902 0 0 0 0.01 0"/>
<feBlend mode="normal" in2="effect3_dropShadow_2489_36234" result="effect4_dropShadow_2489_36234"/>
<feBlend mode="normal" in="SourceGraphic" in2="effect4_dropShadow_2489_36234" result="shape"/>
</filter>
<clipPath id="clip0_2489_36234">
<path d="M28 13C28 8.58172 31.5817 5 36 5V5C40.4183 5 44 8.58172 44 13V13C44 17.4183 40.4183 21 36 21V21C31.5817 21 28 17.4183 28 13V13Z" fill="white"/>
</clipPath>
</defs>
</svg>
