<svg width="82" height="47" viewBox="0 0 82 47" fill="none" xmlns="http://www.w3.org/2000/svg">
<g filter="url(#filter0_dddd_273_12385)">
<path d="M16 19C16 12.3726 21.3726 7 28 7C34.6274 7 40 12.3726 40 19C40 25.6274 34.6274 31 28 31C21.3726 31 16 25.6274 16 19Z" fill="white"/>
<path d="M16.5 19C16.5 12.6487 21.6487 7.5 28 7.5C34.3513 7.5 39.5 12.6487 39.5 19C39.5 25.3513 34.3513 30.5 28 30.5C21.6487 30.5 16.5 25.3513 16.5 19Z" stroke="white"/>
<path d="M31.7501 22.667L24.3342 15.25" stroke="#647491" stroke-width="1.24999" stroke-miterlimit="10" stroke-linecap="round" stroke-linejoin="round"/>
<path d="M31.6659 15.333L24.25 22.75" stroke="#647491" stroke-width="1.24999" stroke-miterlimit="10" stroke-linecap="round" stroke-linejoin="round"/>
</g>
<defs>
<filter id="filter0_dddd_273_12385" x="-26" y="0" width="108" height="177" filterUnits="userSpaceOnUse" color-interpolation-filters="sRGB">
<feFlood flood-opacity="0" result="BackgroundImageFix"/>
<feColorMatrix in="SourceAlpha" type="matrix" values="0 0 0 0 0 0 0 0 0 0 0 0 0 0 0 0 0 0 127 0" result="hardAlpha"/>
<feOffset dy="7"/>
<feGaussianBlur stdDeviation="7"/>
<feColorMatrix type="matrix" values="0 0 0 0 0.74902 0 0 0 0 0.74902 0 0 0 0 0.74902 0 0 0 0.1 0"/>
<feBlend mode="normal" in2="BackgroundImageFix" result="effect1_dropShadow_273_12385"/>
<feColorMatrix in="SourceAlpha" type="matrix" values="0 0 0 0 0 0 0 0 0 0 0 0 0 0 0 0 0 0 127 0" result="hardAlpha"/>
<feOffset dy="26"/>
<feGaussianBlur stdDeviation="13"/>
<feColorMatrix type="matrix" values="0 0 0 0 0.74902 0 0 0 0 0.74902 0 0 0 0 0.74902 0 0 0 0.09 0"/>
<feBlend mode="normal" in2="effect1_dropShadow_273_12385" result="effect2_dropShadow_273_12385"/>
<feColorMatrix in="SourceAlpha" type="matrix" values="0 0 0 0 0 0 0 0 0 0 0 0 0 0 0 0 0 0 127 0" result="hardAlpha"/>
<feOffset dy="59"/>
<feGaussianBlur stdDeviation="17.5"/>
<feColorMatrix type="matrix" values="0 0 0 0 0.74902 0 0 0 0 0.74902 0 0 0 0 0.74902 0 0 0 0.05 0"/>
<feBlend mode="normal" in2="effect2_dropShadow_273_12385" result="effect3_dropShadow_273_12385"/>
<feColorMatrix in="SourceAlpha" type="matrix" values="0 0 0 0 0 0 0 0 0 0 0 0 0 0 0 0 0 0 127 0" result="hardAlpha"/>
<feOffset dy="104"/>
<feGaussianBlur stdDeviation="21"/>
<feColorMatrix type="matrix" values="0 0 0 0 0.74902 0 0 0 0 0.74902 0 0 0 0 0.74902 0 0 0 0.01 0"/>
<feBlend mode="normal" in2="effect3_dropShadow_273_12385" result="effect4_dropShadow_273_12385"/>
<feBlend mode="normal" in="SourceGraphic" in2="effect4_dropShadow_273_12385" result="shape"/>
</filter>
</defs>
</svg>
