<svg width="24" height="24" viewBox="0 0 24 24" fill="none" xmlns="http://www.w3.org/2000/svg">
<path d="M9.9754 21.0607V17.9627H9.62427C8.06466 17.9627 6.73733 17.4152 5.64228 16.3201C4.54742 15.2251 4 13.898 4 12.3388C4 11.1871 4.32241 10.1406 4.96722 9.19939C5.61203 8.25838 6.47652 7.57576 7.56068 7.15153C7.64355 6.38997 7.9954 5.78882 8.61622 5.34805C9.23704 4.90709 9.91189 4.76574 10.6408 4.92402L10.2394 3.83643C10.1386 3.56907 10.1474 3.31129 10.2658 3.06308C10.3841 2.81487 10.5809 2.63835 10.8561 2.5335L11.0306 2.46243L10.9342 2.21714C10.8426 1.97902 10.8485 1.74956 10.9517 1.52878C11.0551 1.3082 11.2315 1.15102 11.4807 1.05727C11.7226 0.971976 11.9604 0.981957 12.1938 1.08721C12.4273 1.19266 12.5863 1.36999 12.6708 1.61921L12.7522 1.8403L12.8707 1.80189C13.1385 1.70651 13.3974 1.71982 13.6474 1.84181C13.8974 1.96379 14.076 2.15796 14.183 2.42432L16.5781 8.95592C16.6813 9.22731 16.6756 9.48913 16.5608 9.74137C16.4463 9.99381 16.2516 10.1712 15.9768 10.2737L15.8673 10.3239L15.9732 10.603C16.0609 10.8474 16.0491 11.0835 15.9378 11.3114C15.8267 11.5394 15.645 11.6992 15.3928 11.7907C15.1488 11.876 14.9092 11.8627 14.6739 11.7508C14.4386 11.6391 14.2815 11.4601 14.2027 11.2137L14.1213 10.9832L13.9888 11.0392C13.7134 11.1462 13.4464 11.1393 13.1877 11.0183C12.9288 10.8975 12.7475 10.699 12.6439 10.4228L12.2474 9.31764C11.9822 9.63097 11.6625 9.87777 11.2883 10.058C10.9141 10.2383 10.5171 10.316 10.0973 10.2912C9.616 10.2664 9.17997 10.1245 8.78922 9.86537C8.39826 9.60647 8.09107 9.27036 7.86767 8.85702C7.20471 9.19354 6.67644 9.67049 6.28285 10.2879C5.88927 10.9053 5.69248 11.5888 5.69248 12.3385C5.69248 13.4307 6.07376 14.3591 6.83633 15.1237C7.59889 15.8881 8.5277 16.2702 9.62275 16.2702H17.9799C18.2144 16.2702 18.4145 16.3533 18.5803 16.5195C18.746 16.6856 18.8289 16.8838 18.8289 17.1141C18.8289 17.3488 18.746 17.5489 18.5803 17.7144C18.4145 17.88 18.2144 17.9627 17.9799 17.9627H12.3393V21.0607H18.651C18.8855 21.0607 19.0856 21.1437 19.2514 21.3099C19.4171 21.476 19.5 21.6742 19.5 21.9045C19.5 22.1392 19.4171 22.3393 19.2514 22.5048C19.0856 22.6704 18.8855 22.7532 18.651 22.7532H4.84322C4.60872 22.7532 4.40951 22.6698 4.24559 22.503C4.08186 22.3363 4 22.1374 4 21.9063C4 21.6752 4.08186 21.4765 4.24559 21.3102C4.40951 21.1438 4.60872 21.0607 4.84322 21.0607H9.9754ZM13.827 9.634L15.1729 9.11742L13.0231 3.20009L11.6413 3.69337L13.827 9.634ZM10.2282 8.92204C10.6065 8.92204 10.9261 8.7928 11.187 8.53431C11.4479 8.27582 11.5784 7.95553 11.5784 7.57344C11.5784 7.19135 11.4482 6.87086 11.1879 6.61197C10.9274 6.35287 10.6081 6.22333 10.2301 6.22333C9.84797 6.22333 9.52738 6.35257 9.26829 6.61106C9.00919 6.86955 8.87965 7.18984 8.87965 7.57193C8.87965 7.95402 9.00889 8.27451 9.26738 8.5334C9.52587 8.7925 9.84616 8.92204 10.2282 8.92204Z" fill="#647491"/>
</svg>
