<svg width="16" height="17" viewBox="0 0 16 17" fill="none" xmlns="http://www.w3.org/2000/svg">
<g id="vuesax/linear/dislike">
<g id="dislike">
<path id="Vector" d="M11.0132 4.10156L8.94653 2.50156C8.67986 2.2349 8.07986 2.10156 7.67986 2.10156H5.14653C4.34653 2.10156 3.47986 2.70156 3.27986 3.50156L1.67986 8.36823C1.34653 9.30156 1.94653 10.1016 2.94653 10.1016H5.6132C6.0132 10.1016 6.34653 10.4349 6.27986 10.9016L5.94653 13.0349C5.8132 13.6349 6.2132 14.3016 6.8132 14.5016C7.34653 14.7016 8.0132 14.4349 8.27986 14.0349L11.0132 9.96823" stroke="#F94839" stroke-width="1.2" stroke-miterlimit="10"/>
<path id="Vector_2" d="M14.4134 4.10065V10.634C14.4134 11.5673 14.0134 11.9007 13.0801 11.9007H12.4134C11.4801 11.9007 11.0801 11.5673 11.0801 10.634V4.10065C11.0801 3.16732 11.4801 2.83398 12.4134 2.83398H13.0801C14.0134 2.83398 14.4134 3.16732 14.4134 4.10065Z" stroke="#F94839" stroke-width="1.2" stroke-linecap="round" stroke-linejoin="round"/>
</g>
</g>
</svg>
