<svg width="16" height="17" viewBox="0 0 16 17" fill="none" xmlns="http://www.w3.org/2000/svg">
<g id="vuesax/bold/document-text">
<g id="document-text">
<path id="Vector" d="M10.5328 1.57326C10.2595 1.29993 9.78613 1.4866 9.78613 1.8666V4.19326C9.78613 5.1666 10.6128 5.97326 11.6195 5.97326C12.2528 5.97993 13.1328 5.97993 13.8861 5.97993C14.2661 5.97993 14.4661 5.53326 14.1995 5.2666C13.2395 4.29993 11.5195 2.55993 10.5328 1.57326Z" fill="#0566FF"/>
<path id="Vector_2" d="M13.667 6.89359H11.7403C10.1603 6.89359 8.87366 5.60693 8.87366 4.02693V2.10026C8.87366 1.73359 8.57366 1.43359 8.20699 1.43359H5.38033C3.32699 1.43359 1.66699 2.76693 1.66699 5.14693V11.0536C1.66699 13.4336 3.32699 14.7669 5.38033 14.7669H10.6203C12.6737 14.7669 14.3337 13.4336 14.3337 11.0536V7.56026C14.3337 7.19359 14.0337 6.89359 13.667 6.89359ZM7.66699 11.9336H5.00033C4.72699 11.9336 4.50033 11.7069 4.50033 11.4336C4.50033 11.1603 4.72699 10.9336 5.00033 10.9336H7.66699C7.94033 10.9336 8.16699 11.1603 8.16699 11.4336C8.16699 11.7069 7.94033 11.9336 7.66699 11.9336ZM9.00033 9.26693H5.00033C4.72699 9.26693 4.50033 9.04026 4.50033 8.76693C4.50033 8.49359 4.72699 8.26693 5.00033 8.26693H9.00033C9.27366 8.26693 9.50033 8.49359 9.50033 8.76693C9.50033 9.04026 9.27366 9.26693 9.00033 9.26693Z" fill="#0566FF"/>
</g>
</g>
</svg>
