<svg width="17" height="16" viewBox="0 0 17 16" fill="none" xmlns="http://www.w3.org/2000/svg">
<g id="Download">
<path id="Fill 1" fill-rule="evenodd" clip-rule="evenodd" d="M8.50082 11.7842C8.15582 11.7842 7.87582 11.5042 7.87582 11.1592V1.125C7.87582 0.78 8.15582 0.5 8.50082 0.5C8.84582 0.5 9.12582 0.78 9.12582 1.125V11.1592C9.12582 11.5042 8.84582 11.7842 8.50082 11.7842Z" fill="black"/>
<path id="Fill 3" fill-rule="evenodd" clip-rule="evenodd" d="M8.50083 11.784C8.335 11.784 8.175 11.7182 8.05833 11.5999L5.62833 9.1607C5.385 8.9157 5.38583 8.51986 5.63 8.27653C5.875 8.0332 6.27 8.0332 6.51333 8.2782L8.50083 10.274L10.4883 8.2782C10.7317 8.0332 11.1267 8.0332 11.3717 8.27653C11.6158 8.51986 11.6167 8.9157 11.3733 9.1607L8.94333 11.5999C8.82666 11.7182 8.66666 11.784 8.50083 11.784Z" fill="black"/>
<g id="Group 7">
<mask id="mask0_2318_30747" style="mask-type:luminance" maskUnits="userSpaceOnUse" x="0" y="4" width="17" height="12">
<path id="Clip 6" fill-rule="evenodd" clip-rule="evenodd" d="M0.166824 4.44385H16.8333V15.8972H0.166824V4.44385Z" fill="white"/>
</mask>
<g mask="url(#mask0_2318_30747)">
<path id="Fill 5" fill-rule="evenodd" clip-rule="evenodd" d="M13.146 15.8972H3.86266C1.82516 15.8972 0.166824 14.2397 0.166824 12.2013V8.13051C0.166824 6.09718 1.82099 4.44385 3.85516 4.44385H4.63932C4.98432 4.44385 5.26432 4.72385 5.26432 5.06885C5.26432 5.41385 4.98432 5.69385 4.63932 5.69385H3.85516C2.51016 5.69385 1.41682 6.78635 1.41682 8.13051V12.2013C1.41682 13.5505 2.51349 14.6472 3.86266 14.6472H13.146C14.4893 14.6472 15.5835 13.553 15.5835 12.2097V8.13968C15.5835 6.79051 14.486 5.69385 13.1385 5.69385H12.3618C12.0168 5.69385 11.7368 5.41385 11.7368 5.06885C11.7368 4.72385 12.0168 4.44385 12.3618 4.44385H13.1385C15.176 4.44385 16.8335 6.10218 16.8335 8.13968V12.2097C16.8335 14.243 15.1785 15.8972 13.146 15.8972Z" fill="black"/>
</g>
</g>
</g>
</svg>
