<svg width="24" height="24" viewBox="0 0 24 24" fill="none" xmlns="http://www.w3.org/2000/svg">
<path d="M12.0314 21.1111C10.7687 21.1111 9.58548 20.8718 8.48177 20.3934C7.37789 19.9149 6.41429 19.264 5.59098 18.4407C4.76786 17.6174 4.11707 16.6542 3.6386 15.551C3.16013 14.4478 2.9209 13.2646 2.9209 12.0014C2.9209 10.7381 3.16013 9.55447 3.6386 8.4504C4.11707 7.34633 4.76786 6.38264 5.59098 5.55934C6.41429 4.73603 7.38063 4.08514 8.48999 3.60668C9.59954 3.12821 10.7867 2.88898 12.0514 2.88898C13.3931 2.88898 14.6632 3.17129 15.8617 3.73592C17.0601 4.30055 18.0977 5.09246 18.9743 6.11165V4.3022C18.9743 4.09391 19.0485 3.91464 19.1969 3.7644C19.3453 3.61398 19.5258 3.53877 19.7383 3.53877C19.9507 3.53877 20.1319 3.61371 20.2818 3.76358C20.4317 3.91364 20.5066 4.09254 20.5066 4.30028V7.9189C20.5066 8.17904 20.4154 8.40029 20.2331 8.58266C20.0507 8.76503 19.8294 8.85621 19.5693 8.85621H15.9529C15.7404 8.85621 15.56 8.78073 15.4118 8.62976C15.2634 8.47897 15.1892 8.29897 15.1892 8.08977C15.1892 7.88057 15.2634 7.70057 15.4118 7.54978C15.56 7.39918 15.7404 7.32388 15.9529 7.32388H17.9874C17.2468 6.42791 16.3635 5.72016 15.3376 5.20062C14.3118 4.68108 13.2171 4.42131 12.0533 4.42131C9.93826 4.42131 8.14278 5.15645 6.66685 6.62671C5.19111 8.09698 4.45323 9.8889 4.45323 12.0025C4.45323 14.1069 5.18882 15.8958 6.66 17.3689C8.13137 18.8421 9.92192 19.5787 12.0317 19.5787C13.792 19.5787 15.3532 19.0356 16.7152 17.9495C18.0774 16.8633 18.9624 15.4772 19.3702 13.7911C19.4314 13.5801 19.5457 13.4193 19.7131 13.3086C19.8806 13.198 20.069 13.1557 20.2782 13.1816C20.5015 13.2113 20.6744 13.3158 20.7969 13.4948C20.9194 13.6737 20.9511 13.8681 20.8922 14.0778C20.419 16.1288 19.3612 17.8137 17.7188 19.1327C16.0762 20.4516 14.1804 21.1111 12.0314 21.1111ZM12.8091 11.6881L15.7853 14.6657C15.9335 14.8172 16.0094 14.9977 16.0128 15.2071C16.0163 15.4163 15.9405 15.5993 15.7853 15.7561C15.6301 15.9131 15.4488 15.9916 15.2415 15.9916C15.0339 15.9916 14.8525 15.9123 14.6974 15.7536L11.5522 12.5857C11.4584 12.4923 11.389 12.3902 11.3441 12.2796C11.2992 12.169 11.2767 12.0519 11.2767 11.9283V7.39754C11.2767 7.18925 11.3509 7.00989 11.4993 6.85947C11.6478 6.70923 11.8282 6.63411 12.0407 6.63411C12.2532 6.63411 12.4344 6.70923 12.5842 6.85947C12.7341 7.00989 12.8091 7.18925 12.8091 7.39754V11.6881Z" fill="#080F1A"/>
</svg>
