<svg width="12" height="13" viewBox="0 0 12 13" fill="none" xmlns="http://www.w3.org/2000/svg">
<g id="vuesax/linear/hierarchy">
<g id="hierarchy">
<path id="Vector" d="M2.625 4.75C3.52246 4.75 4.25 4.02246 4.25 3.125C4.25 2.22754 3.52246 1.5 2.625 1.5C1.72754 1.5 1 2.22754 1 3.125C1 4.02246 1.72754 4.75 2.625 4.75Z" stroke="#354869" stroke-linecap="round" stroke-linejoin="round"/>
<path id="Vector_2" d="M9.5 11.5C10.3284 11.5 11 10.8284 11 10C11 9.17157 10.3284 8.5 9.5 8.5C8.67157 8.5 8 9.17157 8 10C8 10.8284 8.67157 11.5 9.5 11.5Z" stroke="#354869" stroke-linecap="round" stroke-linejoin="round"/>
<path id="Vector_3" d="M2.56494 5C2.56498 5.92422 2.56499 6.90182 2.56498 7.76012C2.56498 8.99731 3.5679 10 4.8051 10V10C6.01028 9.995 6.64505 10 7.56494 10" stroke="#354869" stroke-linecap="round" stroke-linejoin="round"/>
</g>
</g>
</svg>
