<svg width="16" height="16" viewBox="0 0 16 16" fill="none" xmlns="http://www.w3.org/2000/svg">
<g id="Gamification/Fill/Flame">
<path id="Shape" fill-rule="evenodd" clip-rule="evenodd" d="M8.21264 14.6665C4.66648 14.6665 2.33338 11.6665 2.68304 8.40144C2.97051 5.71705 6.01329 1.96611 7.67752 0.729536C7.91382 0.553957 8.16406 0.769923 8.10978 1.07282C7.67752 2.44548 7.50004 4.33317 9.15267 5.25788C9.29669 5.34024 9.4766 5.30315 9.56662 5.15707C9.81468 4.75455 9.9174 4.21816 9.95994 3.76525C9.99103 3.43426 10.3118 3.25832 10.5263 3.49842C11.5089 4.59803 12.7727 6.88566 13.1028 7.96936C13.6667 9.82064 13.9996 14.6665 8.21264 14.6665ZM8.06481 12.3737C6.47282 12.3737 5.83415 11.154 6.03703 10.1524C6.22786 9.21031 7.3737 7.8284 7.90472 7.25583C7.98836 7.16564 8.13216 7.17368 8.21238 7.26693C8.25698 7.31877 8.30762 7.3768 8.36296 7.44023C8.91115 8.06852 9.9212 9.22616 10.1032 10.1377C10.3062 11.154 9.65781 12.3737 8.06481 12.3737Z" fill="#F94839"/>
</g>
</svg>
