<svg width="24" height="24" viewBox="0 0 24 24" fill="none" xmlns="http://www.w3.org/2000/svg">
<g id="Nav icons">
<path id="Vector" fill-rule="evenodd" clip-rule="evenodd" d="M8.80684 19.8328V16.9194C8.80682 16.1784 9.40927 15.5763 10.1557 15.5713H12.8899C13.6399 15.5713 14.2478 16.1749 14.2478 16.9194V19.8419C14.2477 20.471 14.7535 20.9853 15.3871 21H17.2099C19.027 21 20.5 19.5376 20.5 17.7337V9.44594C20.4903 8.73629 20.1547 8.06988 19.5886 7.63638L13.3547 2.65104C12.2626 1.78299 10.7101 1.78299 9.61797 2.65104L3.41139 7.64543C2.84319 8.07717 2.507 8.74468 2.5 9.45499V17.7337C2.5 19.5376 3.97304 21 5.79013 21H7.61291C8.26223 21 8.78861 20.4774 8.78861 19.8328" fill="#0566FF"/>
</g>
</svg>
