<svg width="16" height="16" viewBox="0 0 16 16" fill="none" xmlns="http://www.w3.org/2000/svg">
<g id="Gamification/Fill/Flame">
<path id="Shape" fill-rule="evenodd" clip-rule="evenodd" d="M8.21264 14.6667C4.66648 14.6667 2.33338 11.6667 2.68304 8.40168C2.97051 5.7173 6.01329 1.96635 7.67752 0.72978C7.91382 0.554201 8.16406 0.770168 8.10978 1.07307C7.67752 2.44573 7.50004 4.33341 9.15267 5.25813C9.29669 5.34048 9.4766 5.30339 9.56662 5.15732C9.81468 4.75479 9.9174 4.21841 9.95994 3.76549C9.99103 3.4345 10.3118 3.25857 10.5263 3.49867C11.5089 4.59828 12.7727 6.8859 13.1028 7.96961C13.6667 9.82088 13.9996 14.6667 8.21264 14.6667ZM8.06481 12.3739C6.47282 12.3739 5.83415 11.1543 6.03703 10.1527C6.22786 9.21056 7.3737 7.82865 7.90472 7.25607C7.98836 7.16589 8.13216 7.17392 8.21238 7.26717C8.25698 7.31901 8.30762 7.37704 8.36296 7.44047C8.91115 8.06877 9.9212 9.2264 10.1032 10.1379C10.3062 11.1543 9.65781 12.3739 8.06481 12.3739Z" fill="#08A742"/>
</g>
</svg>
