<svg width="18" height="19" viewBox="0 0 18 19" fill="none" xmlns="http://www.w3.org/2000/svg">
<g id="icon">
<path id="Vector" d="M1.70968 16.5968C0.633332 15.5204 0.0833321 14.2312 0.0596766 12.729C0.0360209 11.2269 0.562365 9.93763 1.63871 8.86129L9.26774 1.23226C10.0247 0.475269 10.9384 0.0997311 12.0089 0.105645C13.0793 0.111559 13.993 0.493011 14.75 1.25C15.5188 2.01882 15.9032 2.93548 15.9032 4C15.9032 5.06452 15.5188 5.98118 14.75 6.75L7.75968 13.7403C7.31021 14.1898 6.775 14.4175 6.15403 14.4234C5.53306 14.4293 4.99785 14.2075 4.54839 13.7581C4.09892 13.3086 3.88898 12.7616 3.91855 12.1169C3.94812 11.4723 4.19355 10.9194 4.65484 10.4581L11.6097 3.50323L12.3194 4.2129L5.31129 11.221C5.05107 11.4812 4.91505 11.7887 4.90323 12.1435C4.8914 12.4984 5.00968 12.8 5.25806 13.0484C5.50645 13.2968 5.80511 13.418 6.15403 13.4121C6.50296 13.4062 6.80161 13.279 7.05 13.0306L14.0581 6.02258C14.6258 5.45484 14.9067 4.77769 14.9008 3.99113C14.8949 3.20457 14.6081 2.52742 14.0403 1.95968C13.4726 1.39194 12.7954 1.10511 12.0089 1.09919C11.2223 1.09328 10.5452 1.37419 9.97742 1.94194L2.3129 9.60645C1.44946 10.4699 1.03253 11.5137 1.0621 12.7379C1.09167 13.9621 1.54409 15.0118 2.41935 15.8871C3.30645 16.7742 4.36209 17.2266 5.58629 17.2444C6.81048 17.2621 7.86021 16.8333 8.73548 15.9581L16.4 8.29355L17.1097 9.00323L9.4629 16.65C8.38656 17.7263 7.09435 18.2556 5.58629 18.2379C4.07822 18.2202 2.78602 17.6731 1.70968 16.5968Z" fill="#0566FF"/>
</g>
</svg>
