<svg width="16" height="16" viewBox="0 0 16 16" fill="none" xmlns="http://www.w3.org/2000/svg">
<g id="vuesax/linear/message-search">
<g id="message-search">
<g id="Group">
<path id="Vector" d="M8.80026 14.2468C8.36026 14.8335 7.64025 14.8335 7.20025 14.2468L6.20025 12.9135C6.08691 12.7668 5.84692 12.6468 5.66692 12.6468H5.33359C2.66692 12.6468 1.33359 11.9801 1.33359 8.64681V5.31348C1.33359 2.64681 2.66692 1.31348 5.33359 1.31348H10.6669C13.3336 1.31348 14.6669 2.64681 14.6669 5.31348V8.64681" stroke="#F94839" stroke-miterlimit="10" stroke-linecap="round" stroke-linejoin="round"/>
</g>
<g id="Group_2">
<path id="Vector_2" d="M12.1333 14.2667C13.3115 14.2667 14.2667 13.3115 14.2667 12.1333C14.2667 10.9551 13.3115 10 12.1333 10C10.9551 10 10 10.9551 10 12.1333C10 13.3115 10.9551 14.2667 12.1333 14.2667Z" stroke="#F94839" stroke-linecap="round" stroke-linejoin="round"/>
<path id="Vector_3" d="M14.6667 14.6667L14 14" stroke="#F94839" stroke-linecap="round" stroke-linejoin="round"/>
</g>
<path id="Vector_4" d="M10.6641 7.33333H10.67" stroke="#F94839" stroke-width="1.33333" stroke-linecap="round" stroke-linejoin="round"/>
<path id="Vector_5" d="M7.997 7.33333H8.00299" stroke="#F94839" stroke-width="1.33333" stroke-linecap="round" stroke-linejoin="round"/>
<path id="Vector_6" d="M5.32967 7.33333H5.33566" stroke="#F94839" stroke-width="1.33333" stroke-linecap="round" stroke-linejoin="round"/>
</g>
</g>
</svg>
