<svg width="108" height="47" viewBox="0 0 108 47" fill="none" xmlns="http://www.w3.org/2000/svg">
<g filter="url(#filter0_dddd_1539_36830)">
<path d="M42 19C42 12.3726 47.3726 7 54 7C60.6274 7 66 12.3726 66 19C66 25.6274 60.6274 31 54 31C47.3726 31 42 25.6274 42 19Z" fill="white"/>
<path d="M42.5 19C42.5 12.6487 47.6487 7.5 54 7.5C60.3513 7.5 65.5 12.6487 65.5 19C65.5 25.3513 60.3513 30.5 54 30.5C47.6487 30.5 42.5 25.3513 42.5 19Z" stroke="white"/>
<path d="M54.0588 24.2448L54.0596 13.7563" stroke="#647491" stroke-width="1.24999" stroke-miterlimit="10" stroke-linecap="round" stroke-linejoin="round"/>
<path d="M59.1852 18.9992L48.6968 19" stroke="#647491" stroke-width="1.24999" stroke-miterlimit="10" stroke-linecap="round" stroke-linejoin="round"/>
</g>
<defs>
<filter id="filter0_dddd_1539_36830" x="0" y="0" width="108" height="177" filterUnits="userSpaceOnUse" color-interpolation-filters="sRGB">
<feFlood flood-opacity="0" result="BackgroundImageFix"/>
<feColorMatrix in="SourceAlpha" type="matrix" values="0 0 0 0 0 0 0 0 0 0 0 0 0 0 0 0 0 0 127 0" result="hardAlpha"/>
<feOffset dy="7"/>
<feGaussianBlur stdDeviation="7"/>
<feColorMatrix type="matrix" values="0 0 0 0 0.74902 0 0 0 0 0.74902 0 0 0 0 0.74902 0 0 0 0.1 0"/>
<feBlend mode="normal" in2="BackgroundImageFix" result="effect1_dropShadow_1539_36830"/>
<feColorMatrix in="SourceAlpha" type="matrix" values="0 0 0 0 0 0 0 0 0 0 0 0 0 0 0 0 0 0 127 0" result="hardAlpha"/>
<feOffset dy="26"/>
<feGaussianBlur stdDeviation="13"/>
<feColorMatrix type="matrix" values="0 0 0 0 0.74902 0 0 0 0 0.74902 0 0 0 0 0.74902 0 0 0 0.09 0"/>
<feBlend mode="normal" in2="effect1_dropShadow_1539_36830" result="effect2_dropShadow_1539_36830"/>
<feColorMatrix in="SourceAlpha" type="matrix" values="0 0 0 0 0 0 0 0 0 0 0 0 0 0 0 0 0 0 127 0" result="hardAlpha"/>
<feOffset dy="59"/>
<feGaussianBlur stdDeviation="17.5"/>
<feColorMatrix type="matrix" values="0 0 0 0 0.74902 0 0 0 0 0.74902 0 0 0 0 0.74902 0 0 0 0.05 0"/>
<feBlend mode="normal" in2="effect2_dropShadow_1539_36830" result="effect3_dropShadow_1539_36830"/>
<feColorMatrix in="SourceAlpha" type="matrix" values="0 0 0 0 0 0 0 0 0 0 0 0 0 0 0 0 0 0 127 0" result="hardAlpha"/>
<feOffset dy="104"/>
<feGaussianBlur stdDeviation="21"/>
<feColorMatrix type="matrix" values="0 0 0 0 0.74902 0 0 0 0 0.74902 0 0 0 0 0.74902 0 0 0 0.01 0"/>
<feBlend mode="normal" in2="effect3_dropShadow_1539_36830" result="effect4_dropShadow_1539_36830"/>
<feBlend mode="normal" in="SourceGraphic" in2="effect4_dropShadow_1539_36830" result="shape"/>
</filter>
</defs>
</svg>
