<svg width="121" height="120" viewBox="0 0 121 120" fill="none" xmlns="http://www.w3.org/2000/svg">
<g id="Checkbox-Final">
<path d="M5.5 60C5.5 29.6243 30.1243 5 60.5 5C90.8757 5 115.5 29.6243 115.5 60C115.5 90.3757 90.8757 115 60.5 115C30.1243 115 5.5 90.3757 5.5 60Z" fill="#08A742"/>
<path d="M5.5 60C5.5 29.6243 30.1243 5 60.5 5C90.8757 5 115.5 29.6243 115.5 60C115.5 90.3757 90.8757 115 60.5 115C30.1243 115 5.5 90.3757 5.5 60Z" stroke="#DAF2E3" stroke-width="10"/>
<path id="Vector" d="M38 60L53 75L83 45" stroke="white" stroke-width="7.5" stroke-linecap="round" stroke-linejoin="round"/>
</g>
</svg>
