<svg width="64" height="64" viewBox="0 0 64 64" fill="none" xmlns="http://www.w3.org/2000/svg">
<g clip-path="url(#clip0_1154_21447)">
<path d="M32 35C33.6569 35 35 33.6569 35 32C35 30.3431 33.6569 29 32 29C30.3431 29 29 30.3431 29 32C29 33.6569 30.3431 35 32 35Z" stroke="#647491" stroke-width="1.5" stroke-miterlimit="10" stroke-linecap="round" stroke-linejoin="round"/>
<path d="M22 32.8799V31.1199C22 30.0799 22.85 29.2199 23.9 29.2199C25.71 29.2199 26.45 27.9399 25.54 26.3699C25.02 25.4699 25.33 24.2999 26.24 23.7799L27.97 22.7899C28.76 22.3199 29.78 22.5999 30.25 23.3899L30.36 23.5799C31.26 25.1499 32.74 25.1499 33.65 23.5799L33.76 23.3899C34.23 22.5999 35.25 22.3199 36.04 22.7899L37.77 23.7799C38.68 24.2999 38.99 25.4699 38.47 26.3699C37.56 27.9399 38.3 29.2199 40.11 29.2199C41.15 29.2199 42.01 30.0699 42.01 31.1199V32.8799C42.01 33.9199 41.16 34.7799 40.11 34.7799C38.3 34.7799 37.56 36.0599 38.47 37.6299C38.99 38.5399 38.68 39.6999 37.77 40.2199L36.04 41.2099C35.25 41.6799 34.23 41.3999 33.76 40.6099L33.65 40.4199C32.75 38.8499 31.27 38.8499 30.36 40.4199L30.25 40.6099C29.78 41.3999 28.76 41.6799 27.97 41.2099L26.24 40.2199C25.33 39.6999 25.02 38.5299 25.54 37.6299C26.45 36.0599 25.71 34.7799 23.9 34.7799C22.85 34.7799 22 33.9199 22 32.8799Z" stroke="#647491" stroke-width="1.5" stroke-miterlimit="10" stroke-linecap="round" stroke-linejoin="round"/>
</g>
<defs>
<clipPath id="clip0_1154_21447">
<path d="M0 8C0 3.58172 3.58172 0 8 0H56C60.4183 0 64 3.58172 64 8V56C64 60.4183 60.4183 64 56 64H8C3.58172 64 0 60.4183 0 56V8Z" fill="white"/>
</clipPath>
</defs>
</svg>
