<svg width="64" height="64" viewBox="0 0 64 64" fill="none" xmlns="http://www.w3.org/2000/svg">
<g clip-path="url(#clip0_1152_21434)">
<path d="M32.37 28.8799H37.62" stroke="#647491" stroke-width="1.5" stroke-linecap="round" stroke-linejoin="round"/>
<path d="M26.38 28.8799L27.13 29.6299L29.38 27.3799" stroke="#647491" stroke-width="1.5" stroke-linecap="round" stroke-linejoin="round"/>
<path d="M32.37 35.8799H37.62" stroke="#647491" stroke-width="1.5" stroke-linecap="round" stroke-linejoin="round"/>
<path d="M26.38 35.8799L27.13 36.6299L29.38 34.3799" stroke="#647491" stroke-width="1.5" stroke-linecap="round" stroke-linejoin="round"/>
<path d="M29 42H35C40 42 42 40 42 35V29C42 24 40 22 35 22H29C24 22 22 24 22 29V35C22 40 24 42 29 42Z" stroke="#647491" stroke-width="1.5" stroke-linecap="round" stroke-linejoin="round"/>
</g>
<defs>
<clipPath id="clip0_1152_21434">
<path d="M0 8C0 3.58172 3.58172 0 8 0H56C60.4183 0 64 3.58172 64 8V56C64 60.4183 60.4183 64 56 64H8C3.58172 64 0 60.4183 0 56V8Z" fill="white"/>
</clipPath>
</defs>
</svg>
