<svg width="16" height="16" viewBox="0 0 16 16" fill="none" xmlns="http://www.w3.org/2000/svg">
<g id="vuesax/linear/call">
<g id="call">
<g id="call_2">
<path id="Vector" d="M14.6466 12.2187C14.6466 12.4587 14.5933 12.7054 14.48 12.9454C14.3666 13.1854 14.22 13.412 14.0266 13.6254C13.7 13.9854 13.34 14.2454 12.9333 14.412C12.5333 14.5787 12.1 14.6654 11.6333 14.6654C10.9533 14.6654 10.2266 14.5054 9.45998 14.1787C8.69331 13.852 7.92665 13.412 7.16665 12.8587C6.39998 12.2987 5.67331 11.6787 4.97998 10.992C4.29331 10.2987 3.67331 9.57203 3.11998 8.81203C2.57331 8.05203 2.13331 7.29203 1.81331 6.5387C1.49331 5.7787 1.33331 5.05203 1.33331 4.3587C1.33331 3.90536 1.41331 3.47203 1.57331 3.07203C1.73331 2.66536 1.98665 2.29203 2.33998 1.9587C2.76665 1.5387 3.23331 1.33203 3.72665 1.33203C3.91331 1.33203 4.09998 1.37203 4.26665 1.45203C4.43998 1.53203 4.59331 1.65203 4.71331 1.82536L6.25998 4.00536C6.37998 4.17203 6.46665 4.32536 6.52665 4.47203C6.58665 4.61203 6.61998 4.75203 6.61998 4.8787C6.61998 5.0387 6.57331 5.1987 6.47998 5.35203C6.39331 5.50536 6.26665 5.66536 6.10665 5.82536L5.59998 6.35203C5.52665 6.42536 5.49331 6.51203 5.49331 6.6187C5.49331 6.67203 5.49998 6.7187 5.51331 6.77203C5.53331 6.82536 5.55331 6.86536 5.56665 6.90536C5.68665 7.12536 5.89331 7.41203 6.18665 7.7587C6.48665 8.10536 6.80665 8.4587 7.15331 8.81203C7.51331 9.16536 7.85998 9.49203 8.21331 9.79203C8.55998 10.0854 8.84665 10.2854 9.07331 10.4054C9.10665 10.4187 9.14665 10.4387 9.19331 10.4587C9.24665 10.4787 9.29998 10.4854 9.35998 10.4854C9.47331 10.4854 9.55998 10.4454 9.63331 10.372L10.14 9.87203C10.3066 9.70536 10.4666 9.5787 10.62 9.4987C10.7733 9.40536 10.9266 9.3587 11.0933 9.3587C11.22 9.3587 11.3533 9.38536 11.5 9.44536C11.6466 9.50536 11.8 9.59203 11.9666 9.70536L14.1733 11.272C14.3466 11.392 14.4666 11.532 14.54 11.6987C14.6066 11.8654 14.6466 12.032 14.6466 12.2187Z" fill="#0566FF"/>
</g>
</g>
</g>
</svg>
