<svg width="32" height="32" viewBox="0 0 32 32" fill="none" xmlns="http://www.w3.org/2000/svg">
<path d="M0 16C0 7.16344 7.16344 0 16 0C24.8366 0 32 7.16344 32 16C32 24.8366 24.8366 32 16 32C7.16344 32 0 24.8366 0 16Z" fill="#DEF8E8"/>
<g clip-path="url(#clip0_1263_21215)">
<path fill-rule="evenodd" clip-rule="evenodd" d="M21.6687 10.347C20.1648 8.84119 18.1647 8.01151 16.0336 8.01074C11.6423 8.01074 8.06838 11.5843 8.06685 15.9767C8.06608 17.3809 8.43318 18.7515 9.13031 19.9594L8 24.0879L12.2233 22.9801C13.3868 23.615 14.697 23.9492 16.0302 23.9496H16.0336C20.4242 23.9496 23.9985 20.3757 24 15.9832C24.0008 13.8544 23.173 11.8532 21.6687 10.3474V10.347ZM16.0336 22.6043H16.0309C14.8429 22.6039 13.6775 22.2845 12.6607 21.6814L12.4189 21.5378L9.91262 22.1951L10.5815 19.7515L10.4241 19.501C9.76135 18.4467 9.41107 17.2281 9.41183 15.9771C9.41336 12.3265 12.3837 9.35611 16.0363 9.35611C17.8049 9.35687 19.4673 10.0464 20.7176 11.2981C21.9678 12.5495 22.6558 14.2135 22.655 15.9825C22.6535 19.6335 19.6832 22.6039 16.0336 22.6039V22.6043ZM19.6656 17.6453C19.4665 17.5456 18.4879 17.0643 18.3053 16.9978C18.1227 16.9313 17.9902 16.8981 17.8576 17.0975C17.7251 17.2969 17.3435 17.7454 17.2273 17.8779C17.1112 18.0108 16.9951 18.0273 16.796 17.9275C16.5971 17.8279 15.9557 17.6178 15.1952 16.9397C14.6035 16.4118 14.2039 15.7602 14.0878 15.5607C13.9716 15.3614 14.0756 15.2536 14.1748 15.1547C14.2642 15.0653 14.3739 14.9221 14.4736 14.8059C14.5733 14.6898 14.6061 14.6066 14.6726 14.474C14.7391 14.3411 14.7058 14.225 14.6562 14.1252C14.6065 14.0255 14.2085 13.0457 14.0423 12.6473C13.8807 12.2592 13.7165 12.3119 13.5946 12.3054C13.4785 12.2997 13.346 12.2986 13.213 12.2986C13.0801 12.2986 12.8646 12.3482 12.682 12.5476C12.4995 12.747 11.9853 13.2287 11.9853 14.2081C11.9853 15.1875 12.6985 16.1345 12.7982 16.2675C12.8979 16.4004 14.202 18.4108 16.1986 19.2733C16.6735 19.4784 17.0444 19.6011 17.3335 19.6927C17.8103 19.8444 18.2442 19.823 18.5872 19.7718C18.9696 19.7145 19.7649 19.2901 19.9307 18.8252C20.0964 18.3603 20.0964 17.9615 20.0468 17.8787C19.9972 17.7958 19.8642 17.7457 19.6652 17.646L19.6656 17.6453Z" fill="#25D366"/>
</g>
<defs>
<clipPath id="clip0_1263_21215">
<rect width="16" height="16.0889" fill="white" transform="translate(8 8.01074)"/>
</clipPath>
</defs>
</svg>
